<svg width="168" height="41" viewBox="0 0 168 41" fill="none" xmlns="http://www.w3.org/2000/svg">
<g clip-path="url(#clip0_17_4943)">
<path d="M49.2773 28.9525H61.2293V25.3525H53.5253V11.7925H49.2773V28.9525Z" fill="#344054"/>
<path d="M68.3108 26.5526C66.6068 26.5526 65.7188 25.0646 65.7188 22.8326C65.7188 20.6006 66.6068 19.0886 68.3108 19.0886C70.0148 19.0886 70.9268 20.6006 70.9268 22.8326C70.9268 25.0646 70.0148 26.5526 68.3108 26.5526ZM68.3348 29.3366C72.2948 29.3366 74.8868 26.5286 74.8868 22.8326C74.8868 19.1366 72.2948 16.3286 68.3348 16.3286C64.3988 16.3286 61.7588 19.1366 61.7588 22.8326C61.7588 26.5286 64.3988 29.3366 68.3348 29.3366Z" fill="#344054"/>
<path d="M81.7411 33.2002C83.5651 33.2002 85.1731 32.7922 86.2531 31.8322C87.2371 30.9442 87.8851 29.6002 87.8851 27.7522V16.6642H84.1411V17.9842H84.0931C83.3731 16.9522 82.2691 16.3042 80.6371 16.3042C77.5891 16.3042 75.4771 18.8482 75.4771 22.4482C75.4771 26.2162 78.0451 28.2802 80.8051 28.2802C82.2931 28.2802 83.2291 27.6802 83.9491 26.8642H84.0451V28.0882C84.0451 29.5762 83.3491 30.4402 81.6931 30.4402C80.3971 30.4402 79.7491 29.8882 79.5331 29.2402H75.7411C76.1251 31.8082 78.3571 33.2002 81.7411 33.2002ZM81.7171 25.3762C80.2531 25.3762 79.2931 24.1762 79.2931 22.3282C79.2931 20.4562 80.2531 19.2562 81.7171 19.2562C83.3491 19.2562 84.2131 20.6482 84.2131 22.3042C84.2131 24.0322 83.4211 25.3762 81.7171 25.3762Z" fill="#344054"/>
<path d="M95.5837 26.5526C93.8797 26.5526 92.9917 25.0646 92.9917 22.8326C92.9917 20.6006 93.8797 19.0886 95.5837 19.0886C97.2877 19.0886 98.1997 20.6006 98.1997 22.8326C98.1997 25.0646 97.2877 26.5526 95.5837 26.5526ZM95.6077 29.3366C99.5677 29.3366 102.159 26.5286 102.159 22.8326C102.159 19.1366 99.5677 16.3286 95.6077 16.3286C91.6717 16.3286 89.0317 19.1366 89.0317 22.8326C89.0317 26.5286 91.6717 29.3366 95.6077 29.3366Z" fill="#344054"/>
<path d="M103.302 28.9525H107.214V16.6645H103.302V28.9525ZM103.302 14.9605H107.214V11.7925H103.302V14.9605Z" fill="#344054"/>
<path d="M108.911 33.0082H112.823V27.6802H112.871C113.639 28.7122 114.767 29.3362 116.351 29.3362C119.567 29.3362 121.703 26.7922 121.703 22.8082C121.703 19.1122 119.711 16.3042 116.447 16.3042C114.767 16.3042 113.567 17.0482 112.727 18.1522H112.655V16.6642H108.911V33.0082ZM115.343 26.3122C113.663 26.3122 112.703 24.9442 112.703 22.9522C112.703 20.9602 113.567 19.4482 115.271 19.4482C116.951 19.4482 117.743 20.8402 117.743 22.9522C117.743 25.0402 116.831 26.3122 115.343 26.3122Z" fill="#344054"/>
<path d="M128.072 29.3362C131.288 29.3362 133.664 27.9442 133.664 25.2562C133.664 22.1122 131.12 21.5602 128.96 21.2002C127.4 20.9122 126.008 20.7922 126.008 19.9282C126.008 19.1602 126.752 18.8002 127.712 18.8002C128.792 18.8002 129.536 19.1362 129.68 20.2402H133.28C133.088 17.8162 131.216 16.3042 127.736 16.3042C124.832 16.3042 122.432 17.6482 122.432 20.2402C122.432 23.1202 124.712 23.6962 126.848 24.0562C128.48 24.3442 129.968 24.4642 129.968 25.5682C129.968 26.3602 129.224 26.7922 128.048 26.7922C126.752 26.7922 125.936 26.1922 125.792 24.9682H122.096C122.216 27.6802 124.472 29.3362 128.072 29.3362Z" fill="#344054"/>
<path d="M138.978 29.3126C140.682 29.3126 141.762 28.6405 142.65 27.4405H142.722V28.9526H146.466V16.6646H142.554V23.5286C142.554 24.9926 141.738 26.0006 140.394 26.0006C139.146 26.0006 138.546 25.2565 138.546 23.9125V16.6646H134.658V24.7285C134.658 27.4646 136.146 29.3126 138.978 29.3126Z" fill="#344054"/>
<path d="M148.168 28.9522H152.08V22.0642C152.08 20.6002 152.8 19.5682 154.024 19.5682C155.2 19.5682 155.752 20.3362 155.752 21.6562V28.9522H159.664V22.0642C159.664 20.6002 160.36 19.5682 161.608 19.5682C162.784 19.5682 163.336 20.3362 163.336 21.6562V28.9522H167.248V20.9602C167.248 18.2002 165.856 16.3042 163.072 16.3042C161.488 16.3042 160.168 16.9762 159.208 18.4642H159.16C158.536 17.1442 157.312 16.3042 155.704 16.3042C153.928 16.3042 152.752 17.1442 151.984 18.4162H151.912V16.6642H148.168V28.9522Z" fill="#344054"/>
<path d="M25.4099 1.97671L21.4769 0.922852L18.1625 13.2924L15.1702 2.12509L11.2371 3.17895L14.4701 15.2444L6.41746 7.19183L3.53827 10.071L12.371 18.9038L1.37124 15.9564L0.317383 19.8894L12.336 23.1098C12.1984 22.5163 12.1256 21.8979 12.1256 21.2625C12.1256 16.7649 15.7716 13.1189 20.2692 13.1189C24.7668 13.1189 28.4128 16.7649 28.4128 21.2625C28.4128 21.8938 28.3409 22.5084 28.205 23.0984L39.1277 26.0251L40.1815 22.0921L28.1151 18.8589L39.1156 15.9113L38.0617 11.9783L25.9958 15.2113L34.0484 7.15877L31.1692 4.27958L22.459 12.9898L25.4099 1.97671Z" fill="#7E3EE5"/>
<path d="M28.1944 23.1445C27.8572 24.5701 27.1453 25.8508 26.1685 26.8769L34.0815 34.79L36.9607 31.9108L28.1944 23.1445Z" fill="#7E3EE5"/>
<path d="M26.0886 26.9595C25.1 27.9692 23.8507 28.7227 22.4497 29.111L25.3291 39.857L29.2621 38.8031L26.0886 26.9595Z" fill="#7E3EE5"/>
<path d="M22.3028 29.1503C21.6528 29.3174 20.9715 29.4062 20.2694 29.4062C19.5172 29.4062 18.7888 29.3042 18.0973 29.1133L15.2153 39.8691L19.1483 40.9229L22.3028 29.1503Z" fill="#7E3EE5"/>
<path d="M17.9583 29.0739C16.5787 28.6663 15.3516 27.9032 14.3832 26.8906L6.45068 34.8231L9.32987 37.7023L17.9583 29.0739Z" fill="#7E3EE5"/>
<path d="M14.3168 26.8205C13.365 25.8015 12.6717 24.5379 12.3417 23.1343L1.3833 26.0706L2.43715 30.0036L14.3168 26.8205Z" fill="#7E3EE5"/>
</g>
<defs>
<clipPath id="clip0_17_4943">
<rect width="168" height="41" fill="white"/>
</clipPath>
</defs>
</svg>
